HIERARCHY
ROOT hip
{
  OFFSET 0 0 0
  CHANNELS 6 Xposition Yposition Zposition Zrotation Yrotation Xrotation
  JOINT abdomen
  {
    OFFSET 0 20.6881 -0.73152
    CHANNELS 3 Zrotation Xrotation Yrotation
    JOINT chest
    {
      OFFSET 0 11.7043 -0.48768
      CHANNELS 3 Zrotation Xrotation Yrotation
      JOINT neck
      {
        OFFSET 0 22.1894 -2.19456
        CHANNELS 3 Zrotation Xrotation Yrotation
        JOINT head
        {
          OFFSET -0.24384 7.07133 1.2192
          CHANNELS 3 Zrotation Xrotation Yrotation
          JOINT leftEye
          {
            OFFSET 4.14528 8.04674 8.04672
            CHANNELS 3 Zrotation Xrotation Yrotation
            End Site
            {
              OFFSET 1 0 0
            }
          }
          JOINT rightEye
          {
            OFFSET -3.6576 8.04674 8.04672
            CHANNELS 3 Zrotation Xrotation Yrotation
            End Site
            {
              OFFSET 1 0 0
            }
          }
        }
      }
      JOINT rCollar
      {
        OFFSET -2.68224 19.2634 -4.8768
        CHANNELS 3 Zrotation Xrotation Yrotation
        JOINT rShldr
        {
          OFFSET -8.77824 -1.95073 1.46304
          CHANNELS 3 Zrotation Xrotation Yrotation
          JOINT rForeArm
          {
            OFFSET -28.1742 -1.7115 0.48768
            CHANNELS 3 Zrotation Xrotation Yrotation
            JOINT rHand
            {
              OFFSET -22.5879 0.773209 7.07136
              CHANNELS 3 Zrotation Xrotation Yrotation
              JOINT rThumb1
              {
                OFFSET -1.2192 -0.487915 3.41376
                CHANNELS 3 Zrotation Xrotation Yrotation
                JOINT rThumb2
                {
                  OFFSET -3.37035 -0.52449 3.41376
                  CHANNELS 3 Zrotation Xrotation Yrotation
                  End Site
                  {
                    OFFSET -1.78271 -1.18214 1.43049
                  }
                }
              }
              JOINT rIndex1
              {
                OFFSET -7.75947 0.938293 5.60832
                CHANNELS 3 Zrotation Xrotation Yrotation
                JOINT rIndex2
                {
                  OFFSET -2.54057 -0.884171 1.56538
                  CHANNELS 3 Zrotation Xrotation Yrotation
                  End Site
                  {
                    OFFSET -1.62519 -0.234802 1.16502
                  }
                }
              }
              JOINT rMid1
              {
                OFFSET -8.24714 1.18213 3.41376
                CHANNELS 3 Zrotation Xrotation Yrotation
                JOINT rMid2
                {
                  OFFSET -3.10165 -0.590103 1.0647
                  CHANNELS 3 Zrotation Xrotation Yrotation
                  End Site
                  {
                    OFFSET -2.48547 -0.328903 0.83742
                  }
                }
              }
              JOINT rRing1
              {
                OFFSET -8.82822 0.546677 1.51678
                CHANNELS 3 Zrotation Xrotation Yrotation
                JOINT rRing2
                {
                  OFFSET -2.60934 -0.819778 -0.0198488
                  CHANNELS 3 Zrotation Xrotation Yrotation
                  End Site
                  {
                    OFFSET -2.33842 -0.294052 0.168128
                  }
                }
              }
              JOINT rPinky1
              {
                OFFSET -8.27202 -0.0477905 -0.4584
                CHANNELS 3 Zrotation Xrotation Yrotation
                JOINT rPinky2
                {
                  OFFSET -1.82734 -0.647385 -0.700984
                  CHANNELS 3 Zrotation Xrotation Yrotation
                  End Site
                  {
                    OFFSET -1.69225 -0.51767 -0.607171
                  }
                }
              }
            }
          }
        }
      }
      JOINT lCollar
      {
        OFFSET 2.68224 19.2634 -4.8768
        CHANNELS 3 Zrotation Xrotation Yrotation
        JOINT lShldr
        {
          OFFSET 8.77824 -1.95073 1.46304
          CHANNELS 3 Zrotation Xrotation Yrotation
          JOINT lForeArm
          {
            OFFSET 28.1742 -1.7115 0.48768
            CHANNELS 3 Zrotation Xrotation Yrotation
            JOINT lHand
            {
              OFFSET 22.5879 0.773209 7.07136
              CHANNELS 3 Zrotation Xrotation Yrotation
              JOINT lThumb1
              {
                OFFSET 1.2192 -0.487915 3.41376
                CHANNELS 3 Zrotation Xrotation Yrotation
                JOINT lThumb2
                {
                  OFFSET 3.37035 -0.52449 3.41376
                  CHANNELS 3 Zrotation Xrotation Yrotation
                  End Site
                  {
                    OFFSET 1.78271 -1.18214 1.43049
                  }
                }
              }
              JOINT lIndex1
              {
                OFFSET 7.75947 0.938293 5.60832
                CHANNELS 3 Zrotation Xrotation Yrotation
                JOINT lIndex2
                {
                  OFFSET 2.54057 -0.884171 1.56538
                  CHANNELS 3 Zrotation Xrotation Yrotation
                  End Site
                  {
                    OFFSET 1.62519 -0.234802 1.16502
                  }
                }
              }
              JOINT lMid1
              {
                OFFSET 8.24714 1.18213 3.41376
                CHANNELS 3 Zrotation Xrotation Yrotation
                JOINT lMid2
                {
                  OFFSET 3.10165 -0.590103 1.0647
                  CHANNELS 3 Zrotation Xrotation Yrotation
                  End Site
                  {
                    OFFSET 2.48547 -0.328903 0.83742
                  }
                }
              }
              JOINT lRing1
              {
                OFFSET 8.82822 0.546677 1.51678
                CHANNELS 3 Zrotation Xrotation Yrotation
                JOINT lRing2
                {
                  OFFSET 2.60934 -0.819778 -0.0198488
                  CHANNELS 3 Zrotation Xrotation Yrotation
                  End Site
                  {
                    OFFSET 2.33842 -0.294052 0.168128
                  }
                }
              }
              JOINT lPinky1
              {
                OFFSET 8.27202 -0.0477905 -0.4584
                CHANNELS 3 Zrotation Xrotation Yrotation
                JOINT lPinky2
                {
                  OFFSET 1.82734 -0.647385 -0.700984
                  CHANNELS 3 Zrotation Xrotation Yrotation
                  End Site
                  {
                    OFFSET 1.69225 -0.51767 -0.607171
                  }
                }
              }
            }
          }
        }
      }
    }
  }
  JOINT rButtock
  {
    OFFSET -8.77824 4.35084 1.2192
    CHANNELS 3 Zrotation Xrotation Yrotation
    JOINT rThigh
    {
      OFFSET 0 -1.70687 -2.19456
      CHANNELS 3 Zrotation Xrotation Yrotation
      JOINT rShin
      {
        OFFSET 0 -36.8199 0.73152
        CHANNELS 3 Zrotation Xrotation Yrotation
        JOINT rFoot
        {
          OFFSET 0.73152 -45.1104 -5.12064
          CHANNELS 3 Zrotation Xrotation Yrotation
          End Site
          {
            OFFSET -1.1221 -3.69964 12.103
          }
        }
      }
    }
  }
  JOINT lButtock
  {
    OFFSET 8.77824 4.35084 1.2192
    CHANNELS 3 Zrotation Xrotation Yrotation
    JOINT lThigh
    {
      OFFSET 0 -1.70687 -2.19456
      CHANNELS 3 Zrotation Xrotation Yrotation
      JOINT lShin
      {
        OFFSET 0 -36.8199 0.73152
        CHANNELS 3 Zrotation Xrotation Yrotation
        JOINT lFoot
        {
          OFFSET -0.73152 -45.1104 -5.12064
          CHANNELS 3 Zrotation Xrotation Yrotation
          End Site
          {
            OFFSET 1.1221 -3.69964 12.103
          }
        }
      }
    }
  }
}
MOTION
Frames:	4
Frame Time:	0.00833333
-25.9594 81.3685 9.69375 -7.1317 32.1994 1.3466 9.21698 13.1056 -0.190028 3.24252 -6.13032 0.729957 -8.92706 -5.82266 -3.13107 7.09992 -8.28425 -2.33693 -0.0 0.0 0.0 -0.0 0.0 0.0 -2.62352e-13 1.65398e-13 4.54968e-13 72.4216 34.1881 -3.03668 -27.1812 -43.5105 90.4798 -0.115102 -9.62975 -1.36639 -7.22546e-10 5.02458e-09 -2.47295e-09 -1.23215e-09 8.7299e-09 -4.2797e-09 -7.22526e-10 5.0246e-09 -2.47297e-09 7.73091 5.47488 0.417314 -7.22546e-10 5.02458e-09 -2.47294e-09 2.90554 0.965183 0.102902 -7.22539e-10 5.02458e-09 -2.47295e-09 10.2786 0.731801 0.0259123 -7.2255e-10 5.02458e-09 -2.47294e-09 2.22167 -0.733487 -0.20892 -2.62407e-13 1.6538e-13 4.54621e-13 -85.3108 35.7589 10.4225 28.3704 -33.7658 -73.3168 0.402282 -17.7414 2.57712 -7.42405e-10 -2.31991e-09 7.00113e-10 -1.29657e-09 -4.02363e-09 1.20507e-09 -7.4241e-10 -2.3199e-09 7.00116e-10 -7.73091 5.47488 -0.417314 -7.42394e-10 -2.31991e-09 7.00113e-10 -2.90554 0.965183 -0.102902 -7.42408e-10 -2.31991e-09 7.00111e-10 -10.2786 0.731801 -0.0259123 -7.42395e-10 -2.31991e-09 7.00104e-10 -2.22167 -0.733487 0.20892 -2.03217e-16 0.0 -3.88251e-19 10.825 -32.1968 3.34008 -0.670499 49.8157 0.355992 -2.51611 -14.2509 -7.01698 2.03217e-16 0.0 3.88251e-19 3.04064 -28.0312 -4.12377 8.50629 83.5039 -8.84856 2.1926 22.8093 -9.49869
-25.0742 81.082 11.5248 -7.1807 34.2057 0.9217 9.69469 13.0678 -0.0514673 3.19821 -6.13519 0.782935 -9.06774 -6.17069 -3.30288 7.14118 -8.11082 -2.58215 -0.0 0.0 0.0 -0.0 0.0 0.0 -1.60641e-13 8.62286e-14 1.5228e-13 71.3985 33.8346 -1.78626 -27.1069 -43.7359 90.9055 -0.113547 -9.56211 -1.35662 -8.31818e-11 5.14393e-09 -2.10686e-09 -1.29151e-10 8.92265e-09 -3.64336e-09 -8.31616e-11 5.14395e-09 -2.10688e-09 7.73091 5.47488 0.417314 -8.31829e-11 5.14393e-09 -2.10686e-09 2.90554 0.965183 0.102902 -8.31765e-11 5.14393e-09 -2.10686e-09 10.2786 0.731801 0.0259123 -8.31869e-11 5.14393e-09 -2.10685e-09 2.22167 -0.733487 -0.20892 -1.60686e-13 8.62175e-14 1.51934e-13 -85.8372 35.1444 10.5471 28.3703 -33.8077 -73.4009 0.402408 -17.7296 2.57554 -6.72088e-11 -2.80984e-09 1.70752e-09 -1.41565e-10 -4.89708e-09 2.95201e-09 -6.7213e-11 -2.80984e-09 1.70753e-09 -7.73091 5.47488 -0.417314 -6.71982e-11 -2.80984e-09 1.70752e-09 -2.90554 0.965183 -0.102902 -6.72117e-11 -2.80984e-09 1.70752e-09 -10.2786 0.731801 -0.0259123 -6.71977e-11 -2.80984e-09 1.70751e-09 -2.22167 -0.733487 0.20892 -2.03217e-16 0.0 -3.88251e-19 11.0958 -30.825 3.01276 -0.651829 49.7262 0.424656 -2.98116 -15.3574 -7.94633 2.03217e-16 0.0 3.88251e-19 3.85991 -30.4035 -3.80805 12.0744 85.2592 -12.4153 2.03407 22.2227 -9.27669
-24.108 81.0296 13.0609 -7.1684 34.4381 1.158 9.72659 13.0658 0.025951 3.25944 -6.1016 0.806457 -9.17713 -6.51129 -3.50966 7.1951 -8.04628 -2.90091 -0.0 0.0 0.0 -0.0 0.0 0.0 1.80338e-15 -4.11493e-14 -2.58895e-13 70.5279 33.3025 -0.682871 -26.9898 -44.0581 91.5397 -0.105985 -9.25145 -1.31171 7.04193e-10 5.11518e-09 -1.56708e-09 1.22844e-09 8.85702e-09 -2.70638e-09 7.04212e-10 5.1152e-09 -1.56709e-09 7.73091 5.47488 0.417314 7.04191e-10 5.11518e-09 -1.56708e-09 2.90554 0.965183 0.102902 7.04196e-10 5.11518e-09 -1.56708e-09 10.2786 0.731801 0.0259123 7.04187e-10 5.11518e-09 -1.56707e-09 2.22167 -0.733487 -0.20892 1.74687e-15 -4.11473e-14 -2.59228e-13 -86.3657 34.6789 10.7962 28.382 -34.0316 -73.7765 0.414184 -17.971 2.61312 7.3228e-10 -3.04323e-09 2.64976e-09 1.23059e-09 -5.31835e-09 4.5859e-09 7.32276e-10 -3.04323e-09 2.64977e-09 -7.73091 5.47488 -0.417314 7.32289e-10 -3.04323e-09 2.64976e-09 -2.90554 0.965183 -0.102902 7.32276e-10 -3.04324e-09 2.64976e-09 -10.2786 0.731801 -0.0259123 7.32291e-10 -3.04323e-09 2.64976e-09 -2.22167 -0.733487 0.20892 -2.03217e-16 0.0 -3.88251e-19 10.9109 -29.0969 2.36014 -0.616203 49.3244 0.493844 -3.49858 -16.3411 -8.95804 2.03217e-16 0.0 3.88251e-19 4.20087 -32.5353 -3.67671 17.0677 86.5418 -17.4133 1.88074 21.4235 -9.13419
-23.086 81.1263 14.6896 -7.0624 34.9647 1.3777 9.59359 13.0697 0.169259 3.32616 -6.07814 0.840363 -9.27929 -6.79622 -3.73231 7.27977 -8.07996 -3.25308 -0.0 0.0 0.0 -0.0 0.0 0.0 1.66541e-13 -1.60675e-13 -6.60627e-13 69.8436 32.6666 0.261348 -26.8475 -44.4183 92.2708 -0.097678 -8.88676 -1.25914 1.47632e-09 4.76851e-09 -8.5547e-10 2.55845e-09 8.24001e-09 -1.47216e-09 1.47633e-09 4.76853e-09 -8.55481e-10 7.73091 5.47488 0.417314 1.47631e-09 4.76851e-09 -8.55471e-10 2.90554 0.965183 0.102902 1.47632e-09 4.76851e-09 -8.55466e-10 10.2786 0.731801 0.0259123 1.47631e-09 4.76852e-09 -8.55457e-10 2.22167 -0.733487 -0.20892 1.66461e-13 -1.60661e-13 -6.60941e-13 -86.9041 34.3829 11.1776 28.3996 -34.373 -74.335 0.433949 -18.3813 2.67701 1.51075e-09 -3.07313e-09 3.386e-09 2.56935e-09 -5.38214e-09 5.86374e-09 1.51075e-09 -3.07313e-09 3.38601e-09 -7.73091 5.47488 -0.417314 1.51076e-09 -3.07313e-09 3.386e-09 -2.90554 0.965183 -0.102902 1.51075e-09 -3.07313e-09 3.386e-09 -10.2786 0.731801 -0.0259123 1.51076e-09 -3.07313e-09 3.38599e-09 -2.22167 -0.733487 0.20892 -2.03217e-16 0.0 -3.88251e-19 10.6399 -27.2241 1.69865 -0.57237 48.7315 0.562312 -3.98876 -17.1103 -9.89155 2.03217e-16 0.0 3.88251e-19 4.37764 -34.5185 -3.50925 23.6544 87.4288 -24.0106 1.72626 20.431 -9.05908
